<?xml version="1.0" standalone="no"?>
<!DOCTYPE svg PUBLIC "-//W3C//DTD SVG 20010904//EN"
 "http://www.w3.org/TR/2001/REC-SVG-20010904/DTD/svg10.dtd">
<svg version="1.0" xmlns="http://www.w3.org/2000/svg"
 width="576.000000pt" height="216.000000pt" viewBox="0 0 576.000000 216.000000"
 preserveAspectRatio="xMidYMid meet">
<metadata>
Created by potrace 1.16, written by Peter Selinger 2001-2019
</metadata>
<g transform="translate(0.000000,216.000000) scale(0.100000,-0.100000)"
fill="#000000" stroke="none">
<path d="M1919 2039 c-17 -33 3 -69 38 -68 l28 1 -25 7 c-16 4 -26 15 -28 30
-4 27 15 43 42 35 12 -4 16 -2 12 5 -12 19 -55 12 -67 -10z"/>
<path d="M2077 2047 c-9 -25 5 -77 22 -76 10 0 11 2 4 6 -17 6 -17 40 -1 45 9
3 8 9 -4 21 -12 12 -17 13 -21 4z"/>
<path d="M2197 2047 c-3 -8 -2 -29 3 -48 7 -30 8 -31 9 -8 1 39 31 47 31 9 0
-36 19 -40 22 -5 0 14 1 31 2 38 1 6 6 15 11 19 6 4 0 8 -12 8 -13 0 -23 -4
-23 -10 0 -5 -8 -10 -17 -10 -15 0 -16 2 -3 10 13 8 13 10 -1 10 -9 0 -19 -6
-22 -13z"/>
<path d="M3100 2051 c0 -5 -9 -11 -21 -14 -16 -4 -20 -12 -17 -34 2 -22 9 -29
31 -31 26 -3 27 -2 27 42 0 25 -4 46 -10 46 -5 0 -10 -4 -10 -9z m0 -52 c0
-20 -15 -26 -25 -9 -9 15 3 43 15 35 5 -3 10 -15 10 -26z"/>
<path d="M3217 2053 c-11 -10 -8 -83 3 -83 6 0 11 11 12 25 0 14 1 31 2 38 1
6 6 15 11 19 6 5 3 8 -6 8 -9 0 -19 -3 -22 -7z"/>
<path d="M3400 2015 c0 -25 5 -45 10 -45 6 0 10 20 10 45 0 25 -4 45 -10 45
-5 0 -10 -20 -10 -45z"/>
<path d="M3437 2047 c-9 -25 5 -77 22 -76 10 0 11 2 4 6 -17 6 -17 40 -1 45 9
3 8 9 -4 21 -12 12 -17 13 -21 4z"/>
<path d="M3737 2047 c-3 -8 -2 -29 3 -48 7 -30 8 -31 9 -7 1 14 7 29 14 31 9
4 9 8 -2 15 -11 8 -11 10 0 15 10 4 10 6 -2 6 -9 1 -19 -5 -22 -12z"/>
<path d="M4087 2047 c-9 -25 5 -77 22 -76 10 0 11 2 4 6 -17 6 -17 40 -1 45 9
3 8 9 -4 21 -12 12 -17 13 -21 4z"/>
<path d="M2712 2013 c2 -29 8 -38 23 -40 11 -2 14 0 8 3 -16 7 -17 40 -2 50 8
4 7 9 -2 15 -25 16 -30 10 -27 -28z"/>
<path d="M2001 2008 c-1 -36 1 -38 29 -38 28 0 30 3 30 35 0 19 -4 35 -10 35
-5 0 -10 -14 -10 -31 0 -39 -22 -34 -31 7 -6 27 -7 27 -8 -8z"/>
<path d="M2124 2026 c-11 -29 0 -51 26 -51 21 0 25 5 25 30 0 24 -5 31 -23 33
-13 2 -24 -3 -28 -12z m38 -38 c-16 -16 -37 4 -28 28 6 16 8 16 23 1 13 -13
15 -19 5 -29z"/>
<path d="M2323 2005 c0 -22 2 -30 4 -17 2 12 2 30 0 40 -3 9 -5 -1 -4 -23z"/>
<path d="M2350 2004 c0 -19 5 -34 10 -34 6 0 10 11 10 24 0 38 18 40 29 4 l10
-33 -2 35 c-2 31 -5 35 -29 36 -25 1 -28 -2 -28 -32z"/>
<path d="M2433 2005 c11 -37 31 -46 40 -17 2 9 8 25 12 35 4 9 3 17 -3 17 -5
0 -13 -12 -17 -27 l-8 -28 -10 28 c-16 39 -27 33 -14 -8z"/>
<path d="M2502 2024 c-15 -27 -3 -54 24 -54 28 0 42 25 27 49 -14 23 -40 25
-51 5z m38 -25 c0 -20 -15 -26 -25 -9 -9 15 3 43 15 35 5 -3 10 -15 10 -26z"/>
<path d="M2574 2026 c-11 -28 1 -51 26 -53 25 -3 25 -3 3 7 -13 5 -23 13 -23
18 0 14 26 33 33 25 4 -3 7 -1 7 5 0 17 -40 15 -46 -2z"/>
<path d="M2640 2030 c0 -5 6 -7 14 -4 8 3 17 1 21 -5 3 -7 -2 -11 -14 -11 -14
0 -21 -6 -21 -20 0 -16 7 -20 30 -20 32 0 38 16 20 51 -11 19 -50 27 -50 9z
m35 -40 c-3 -5 -10 -10 -16 -10 -5 0 -9 5 -9 10 0 6 7 10 16 10 8 0 12 -4 9
-10z"/>
<path d="M2763 2005 c0 -22 2 -30 4 -17 2 12 2 30 0 40 -3 9 -5 -1 -4 -23z"/>
<path d="M2794 2026 c-11 -29 0 -51 26 -51 21 0 25 5 25 30 0 24 -5 31 -23 33
-13 2 -24 -3 -28 -12z m38 -38 c-16 -16 -37 4 -28 28 6 16 8 16 23 1 13 -13
15 -19 5 -29z"/>
<path d="M2871 2001 c1 -36 1 -36 8 -6 7 36 25 36 29 0 4 -32 22 -33 22 -1 0
27 -17 43 -42 43 -14 0 -18 -8 -17 -36z"/>
<path d="M3140 2025 c-19 -23 -3 -55 28 -54 24 2 24 2 5 6 -31 6 -29 23 2 23
27 0 32 9 13 28 -16 16 -33 15 -48 -3z m35 -5 c3 -5 -1 -10 -10 -10 -9 0 -13
5 -10 10 3 6 8 10 10 10 2 0 7 -4 10 -10z"/>
<path d="M3260 2031 c0 -6 7 -8 15 -5 8 4 15 2 15 -4 0 -5 -9 -12 -21 -15 -29
-8 -19 -31 15 -35 26 -3 27 -1 24 30 -2 25 -8 34 -25 36 -13 2 -23 -1 -23 -7z
m30 -41 c0 -5 -4 -10 -10 -10 -5 0 -10 5 -10 10 0 6 5 10 10 10 6 0 10 -4 10
-10z"/>
<path d="M3332 2008 c-2 -36 0 -38 28 -38 27 0 30 3 30 29 0 38 -18 50 -22 14
-5 -39 -26 -40 -31 -1 l-4 33 -1 -37z"/>
<path d="M3524 2026 c-11 -28 1 -51 26 -53 25 -3 25 -3 3 7 -13 5 -23 13 -23
18 0 14 26 33 33 25 4 -3 7 -1 7 5 0 17 -40 15 -46 -2z"/>
<path d="M3590 2025 c-18 -21 -3 -55 25 -55 27 0 39 24 25 51 -13 23 -33 25
-50 4z m40 -26 c0 -10 -7 -19 -15 -19 -15 0 -21 31 -9 43 11 10 24 -3 24 -24z"/>
<path d="M3660 2004 c0 -19 5 -34 10 -34 6 0 10 11 10 24 0 38 18 40 29 4 l10
-33 -2 35 c-2 31 -5 35 -29 36 -25 1 -28 -2 -28 -32z"/>
<path d="M3783 2005 c0 -22 2 -30 4 -17 2 12 2 30 0 40 -3 9 -5 -1 -4 -23z"/>
<path d="M3817 2033 c-4 -3 -7 -17 -7 -31 0 -16 7 -26 23 -30 22 -6 22 -6 -3
-13 -22 -5 -23 -7 -7 -14 27 -11 47 13 47 56 0 34 -3 39 -23 39 -13 0 -27 -3
-30 -7z m33 -34 c0 -20 -15 -26 -25 -9 -9 15 3 43 15 35 5 -3 10 -15 10 -26z"/>
<path d="M3891 2008 c-1 -36 1 -38 29 -38 28 0 30 3 30 35 0 19 -4 35 -10 35
-5 0 -10 -14 -10 -31 0 -39 -22 -34 -31 7 -6 27 -7 27 -8 -8z"/>
<path d="M3967 2033 c-11 -10 -8 -63 3 -63 6 0 10 10 10 23 0 13 5 28 12 35 9
9 9 12 -3 12 -9 0 -19 -3 -22 -7z"/>
<path d="M4020 2031 c0 -6 7 -8 15 -5 8 4 15 2 15 -4 0 -5 -9 -12 -21 -15 -29
-8 -19 -31 15 -35 26 -3 27 -1 24 30 -2 25 -8 34 -25 36 -13 2 -23 -1 -23 -7z
m30 -41 c0 -5 -4 -10 -10 -10 -5 0 -10 5 -10 10 0 6 5 10 10 10 6 0 10 -4 10
-10z"/>
<path d="M4137 2033 c-11 -10 -8 -63 3 -63 6 0 10 16 10 35 0 36 -2 40 -13 28z"/>
<path d="M4172 2024 c-15 -27 -3 -54 24 -54 28 0 42 25 27 49 -14 23 -40 25
-51 5z m38 -25 c0 -20 -15 -26 -25 -9 -9 15 3 43 15 35 5 -3 10 -15 10 -26z"/>
<path d="M4240 2004 c0 -19 5 -34 10 -34 6 0 10 11 10 24 0 38 18 40 29 4 l10
-33 -2 35 c-2 31 -5 35 -29 36 -25 1 -28 -2 -28 -32z"/>
<path d="M2978 2003 c6 -2 18 -2 25 0 6 3 1 5 -13 5 -14 0 -19 -2 -12 -5z"/>
<path d="M237 1953 c-3 -5 14 -8 38 -8 24 0 38 3 32 7 -16 10 -65 10 -70 1z"/>
<path d="M257 1923 c-13 -12 -7 -41 9 -47 20 -8 44 10 44 32 0 13 -3 12 -15
-4 -14 -19 -14 -18 -15 4 0 22 -10 28 -23 15z"/>
<path d="M560 1801 c0 -96 -2 -110 -17 -114 -17 -4 -17 -5 0 -6 15 -1 17 -14
17 -115 0 -101 -2 -115 -17 -119 -17 -4 -17 -5 0 -6 15 -1 17 -14 17 -115 0
-101 -2 -115 -17 -119 -17 -4 -17 -5 0 -6 15 -1 17 -14 17 -115 0 -101 -2
-115 -17 -119 -17 -4 -17 -5 0 -6 15 -1 17 -14 17 -115 0 -101 -2 -115 -17
-119 -17 -4 -17 -5 0 -6 15 -1 17 -14 17 -115 0 -101 -2 -115 -17 -119 -17 -4
-17 -5 0 -6 13 -1 17 -10 17 -36 l0 -35 114 0 c101 0 115 -2 119 -18 4 -16 5
-16 6 1 1 16 32 17 511 17 479 0 510 -1 510 -17 1 -17 1 -17 14 0 12 16 49 17
519 17 473 0 506 -1 510 -18 4 -16 5 -16 6 1 1 16 32 17 511 17 479 0 510 -1
510 -17 1 -17 1 -17 14 -1 12 17 49 18 519 18 473 0 506 -1 510 -18 4 -16 5
-16 6 1 1 16 25 17 361 17 l360 0 0 750 0 750 -2550 0 -2550 0 0 -109z m5090
-636 l0 -735 -2540 0 -2540 0 0 735 0 735 2540 0 2540 0 0 -735z"/>
<path d="M2312 1850 c-11 -18 -9 -22 13 -32 33 -15 56 3 39 30 -16 25 -37 26
-52 2z"/>
<path d="M1675 1840 c-9 -27 1 -40 30 -40 29 0 39 13 30 40 -4 13 -15 20 -30
20 -15 0 -26 -7 -30 -20z"/>
<path d="M5383 1780 c0 -25 2 -35 4 -22 2 12 2 32 0 45 -2 12 -4 2 -4 -23z"/>
<path d="M5413 1780 c0 -25 2 -35 4 -22 2 12 2 32 0 45 -2 12 -4 2 -4 -23z"/>
<path d="M5112 1788 c-7 -7 -12 -16 -12 -21 0 -15 33 -35 47 -30 18 7 16 50
-3 57 -20 8 -18 8 -32 -6z"/>
<path d="M5329 1798 c0 -2 -3 -15 -5 -30 -4 -24 -1 -28 21 -28 27 0 35 26 13
48 -11 11 -27 16 -29 10z m21 -38 c0 -5 -5 -10 -11 -10 -5 0 -7 5 -4 10 3 6 8
10 11 10 2 0 4 -4 4 -10z"/>
<path d="M5500 1785 c-17 -21 -5 -45 22 -44 21 0 21 1 4 8 -19 7 -18 8 4 14
20 5 21 8 10 21 -16 20 -24 20 -40 1z m30 -5 c0 -5 -4 -10 -10 -10 -5 0 -10 5
-10 10 0 6 5 10 10 10 6 0 10 -4 10 -10z"/>
<path d="M5442 1765 c13 -29 23 -32 32 -9 10 26 7 41 -5 24 -8 -11 -12 -12
-16 -2 -2 6 -9 12 -14 12 -5 0 -3 -11 3 -25z"/>
<path d="M986 1744 c-20 -20 -20 -33 0 -41 20 -8 49 21 41 41 -8 20 -21 20
-41 0z"/>
<path d="M1784 1656 c-6 -17 11 -46 28 -46 14 0 5 53 -9 58 -7 2 -16 -4 -19
-12z"/>
<path d="M5358 1653 c0 -10 -2 -24 -2 -32 -1 -19 -26 -27 -26 -9 0 8 6 20 13
27 10 11 9 13 -3 9 -8 -3 -16 -17 -18 -31 -3 -23 0 -27 22 -27 24 0 26 4 26
40 0 40 -9 56 -12 23z"/>
<path d="M5540 1660 c0 -5 -6 -10 -14 -10 -16 0 -31 -34 -21 -50 3 -5 15 -10
26 -10 16 0 19 7 19 40 0 22 -2 40 -5 40 -3 0 -5 -4 -5 -10z m0 -46 c0 -14
-12 -19 -23 -8 -9 9 4 35 14 28 5 -3 9 -12 9 -20z"/>
<path d="M5104 1636 c-10 -26 4 -46 31 -46 23 0 26 4 23 28 -3 31 -44 45 -54
18z"/>
<path d="M5392 1641 c-22 -14 -10 -46 18 -48 23 -2 23 -2 5 6 -18 9 -18 10 -2
10 12 1 17 7 15 18 -4 20 -18 26 -36 14z m23 -11 c3 -5 -1 -10 -10 -10 -9 0
-13 5 -10 10 3 6 8 10 10 10 2 0 7 -4 10 -10z"/>
<path d="M5450 1640 c0 -6 6 -8 13 -5 6 4 4 0 -5 -8 -26 -20 -22 -37 8 -37 22
0 25 4 22 27 -3 27 -38 48 -38 23z m30 -30 c0 -5 -5 -10 -11 -10 -5 0 -7 5 -4
10 3 6 8 10 11 10 2 0 4 -4 4 -10z"/>
<path d="M1840 1580 c0 -18 4 -29 10 -25 6 3 10 15 10 25 0 10 -4 22 -10 25
-6 4 -10 -7 -10 -25z"/>
<path d="M3521 1591 c-13 -24 9 -57 33 -48 23 9 31 34 16 52 -17 20 -37 19
-49 -4z"/>
<path d="M1803 1584 c-3 -8 -1 -20 6 -27 8 -8 11 -4 11 16 0 30 -7 35 -17 11z"/>
<path d="M1840 1508 c0 -42 5 -47 19 -19 7 13 6 24 -4 37 -13 18 -14 16 -15
-18z"/>
<path d="M1950 1526 c-27 -33 18 -72 48 -42 13 13 14 20 6 34 -15 23 -38 26
-54 8z"/>
<path d="M2111 1501 c-7 -13 -6 -23 4 -37 15 -19 15 -19 30 0 15 19 5 56 -15
56 -5 0 -14 -8 -19 -19z"/>
<path d="M1060 1460 c0 -5 11 -10 25 -10 14 0 25 5 25 10 0 6 -11 10 -25 10
-14 0 -25 -4 -25 -10z"/>
<path d="M2563 1453 c9 -2 23 -2 30 0 6 3 -1 5 -18 5 -16 0 -22 -2 -12 -5z"/>
<path d="M1060 1425 c7 -8 17 -15 22 -15 5 0 16 7 24 15 14 13 11 15 -22 15
-31 0 -35 -2 -24 -15z"/>
<path d="M2542 1428 c8 -24 35 -32 52 -15 23 23 20 27 -20 27 -23 0 -34 -4
-32 -12z"/>
<path d="M3428 1406 c-22 -16 -22 -23 -4 -42 19 -19 29 -18 43 6 10 15 10 22
-3 35 -18 18 -15 18 -36 1z"/>
<path d="M4450 1405 c-15 -18 -6 -45 14 -45 23 0 42 40 25 51 -19 12 -25 11
-39 -6z"/>
<path d="M1566 1362 c-3 -5 -4 -16 -2 -27 3 -23 44 -31 52 -10 11 28 -35 61
-50 37z"/>
<path d="M3329 1356 c-10 -11 -5 -45 7 -50 20 -8 46 12 42 32 -2 11 -42 26
-49 18z"/>
<path d="M2144 1306 c-10 -26 4 -48 28 -44 17 2 23 10 23 28 0 18 -6 26 -23
28 -13 2 -25 -3 -28 -12z"/>
<path d="M1453 1303 c-18 -6 -16 -52 2 -59 17 -7 45 12 45 30 0 15 -32 34 -47
29z"/>
<path d="M2073 1284 c-3 -8 1 -23 10 -31 21 -21 48 -10 44 18 -4 27 -45 37
-54 13z"/>
<path d="M1965 1264 c-8 -9 -15 -18 -15 -20 0 -8 27 -34 35 -34 15 0 35 30 29
43 -8 23 -32 28 -49 11z"/>
<path d="M2474 1266 c-10 -26 4 -46 31 -46 23 0 26 4 23 28 -3 31 -44 45 -54
18z"/>
<path d="M877 1243 c-17 -16 -5 -33 23 -33 32 0 37 9 18 28 -13 13 -31 16 -41
5z"/>
<path d="M1557 1244 c-17 -17 -5 -34 24 -34 24 0 30 4 27 18 -3 17 -38 29 -51
16z"/>
<path d="M5105 1220 c-4 -6 7 -10 25 -10 18 0 29 4 25 10 -3 6 -15 10 -25 10
-10 0 -22 -4 -25 -10z"/>
<path d="M1738 1213 c7 -3 16 -2 19 1 4 3 -2 6 -13 5 -11 0 -14 -3 -6 -6z"/>
<path d="M898 1193 c7 -3 16 -2 19 1 4 3 -2 6 -13 5 -11 0 -14 -3 -6 -6z"/>
<path d="M1542 1188 c-30 -15 -26 -51 6 -53 28 -2 39 19 23 39 -10 12 -8 15
11 19 19 3 19 4 3 5 -11 0 -30 -4 -43 -10z"/>
<path d="M1715 1191 c-3 -5 2 -16 10 -25 13 -13 20 -13 35 -3 11 6 20 17 20
24 0 15 -56 18 -65 4z"/>
<path d="M4625 1182 c-3 -8 -2 -19 2 -25 5 -7 8 -23 8 -36 0 -34 30 -51 51
-29 11 11 14 22 8 35 -4 10 -9 25 -9 33 -1 8 -3 20 -4 26 -2 15 -50 12 -56 -4z"/>
<path d="M4815 1190 c-8 -13 34 -49 56 -50 23 0 41 24 33 44 -7 18 -78 23 -89
6z"/>
<path d="M5100 1190 c0 -5 9 -14 19 -20 15 -7 23 -6 35 6 22 22 21 24 -19 24
-19 0 -35 -4 -35 -10z"/>
<path d="M1847 1183 c-4 -3 -7 -19 -7 -35 0 -25 4 -29 23 -26 14 2 23 11 25
27 4 29 -24 52 -41 34z"/>
<path d="M4487 1164 c-13 -13 -7 -52 8 -58 27 -10 46 5 43 33 -3 26 -35 41
-51 25z"/>
<path d="M5023 1163 c-19 -7 -16 -50 3 -57 17 -7 44 9 44 26 0 9 -25 39 -32
37 -2 0 -9 -3 -15 -6z"/>
<path d="M2842 1134 c-15 -16 -10 -44 8 -44 5 0 10 14 10 30 0 34 0 35 -18 14z"/>
<path d="M2870 1122 c0 -18 4 -32 9 -32 16 0 19 26 5 45 -13 17 -14 17 -14
-13z"/>
<path d="M4055 1130 c-3 -11 -12 -20 -20 -20 -18 0 -28 -30 -14 -46 16 -19 32
-17 49 6 8 11 20 20 27 20 14 0 27 35 18 50 -11 18 -53 11 -60 -10z"/>
<path d="M1326 1114 c-21 -15 -16 -41 10 -51 10 -4 22 1 30 11 24 34 -7 65
-40 40z"/>
<path d="M1872 1098 c-25 -25 0 -64 32 -52 21 8 21 50 0 58 -20 8 -18 8 -32
-6z"/>
<path d="M3463 1088 c-26 -33 -18 -88 12 -88 11 0 32 25 40 48 12 39 -29 69
-52 40z"/>
<path d="M4148 1061 c-9 -15 -16 -17 -31 -10 -14 8 -22 6 -32 -8 -7 -10 -11
-21 -8 -26 2 -4 -1 -14 -7 -22 -11 -13 -7 -15 23 -15 29 0 36 4 39 23 2 15 10
22 26 22 29 0 51 33 31 46 -21 13 -28 11 -41 -10z"/>
<path d="M5311 1057 c-16 -19 -4 -46 20 -44 19 1 21 3 23 34 1 22 -27 28 -43
10z"/>
<path d="M4894 1045 c-9 -21 3 -45 21 -45 10 0 15 10 15 30 0 32 -26 43 -36
15z"/>
<path d="M4940 1023 c0 -34 4 -43 18 -43 13 0 14 2 3 9 -7 5 -11 17 -7 27 3
11 1 26 -4 34 -7 11 -10 3 -10 -27z"/>
<path d="M883 1031 c-33 -27 -30 -51 5 -51 21 0 32 7 41 26 20 44 -6 58 -46
25z"/>
<path d="M1942 1024 c-19 -21 -7 -44 22 -44 29 0 38 19 21 43 -15 21 -26 21
-43 1z"/>
<path d="M4220 1010 c-9 -16 -8 -22 5 -26 34 -13 58 18 30 38 -16 12 -24 9
-35 -12z"/>
<path d="M3563 1013 c-26 -10 -13 -33 17 -33 28 0 30 2 20 20 -11 20 -16 22
-37 13z"/>
<path d="M1500 995 c-11 -13 -8 -15 20 -15 21 0 30 4 28 13 -7 18 -33 20 -48
2z"/>
<path d="M2635 990 c-3 -5 3 -10 14 -10 12 0 21 5 21 10 0 6 -6 10 -14 10 -8
0 -18 -4 -21 -10z"/>
<path d="M4655 990 c-3 -5 3 -10 14 -10 12 0 21 5 21 10 0 6 -6 10 -14 10 -8
0 -18 -4 -21 -10z"/>
<path d="M2808 983 c7 -3 16 -2 19 1 4 3 -2 6 -13 5 -11 0 -14 -3 -6 -6z"/>
<path d="M845 951 c-3 -5 2 -16 10 -25 13 -13 20 -13 35 -3 11 6 20 17 20 24
0 15 -56 18 -65 4z"/>
<path d="M1136 945 c-17 -17 -12 -41 11 -49 13 -6 43 14 43 29 0 8 -26 35 -34
35 -2 0 -11 -7 -20 -15z"/>
<path d="M1547 947 c-3 -7 2 -22 10 -32 14 -20 14 -20 29 -1 8 11 14 26 14 33
0 17 -46 17 -53 0z"/>
<path d="M2475 950 c-11 -18 26 -23 43 -6 15 15 14 16 -10 16 -15 0 -30 -5
-33 -10z"/>
<path d="M2635 951 c3 -6 14 -8 24 -6 11 2 22 -3 25 -11 5 -12 9 -12 26 -2 32
20 24 28 -31 28 -29 0 -48 -4 -44 -9z"/>
<path d="M2780 951 c0 -30 53 -35 64 -5 4 10 -3 14 -29 14 -19 0 -35 -4 -35
-9z"/>
<path d="M3773 946 c15 -12 16 -18 7 -35 -13 -24 -14 -25 -39 -9 -15 9 -23 9
-35 -1 -24 -20 -19 -38 16 -55 44 -22 56 -20 89 15 34 37 35 40 10 59 -19 13
-19 14 -3 26 15 12 12 13 -23 13 -36 0 -38 -1 -22 -13z"/>
<path d="M4341 946 c-16 -20 -3 -46 24 -46 13 0 26 7 29 16 7 19 -10 44 -29
44 -7 0 -18 -6 -24 -14z"/>
<path d="M4650 951 c0 -17 32 -21 46 -6 14 13 12 15 -15 15 -17 0 -31 -4 -31
-9z"/>
<path d="M4915 950 c3 -5 8 -10 11 -10 2 0 4 5 4 10 0 6 -5 10 -11 10 -5 0 -7
-4 -4 -10z"/>
<path d="M4940 941 c0 -27 15 -34 34 -15 23 22 20 34 -9 34 -18 0 -25 -5 -25
-19z"/>
<path d="M5384 946 c-10 -26 4 -48 28 -44 17 2 23 10 23 28 0 18 -6 26 -23 28
-13 2 -25 -3 -28 -12z"/>
<path d="M922 922 c-26 -13 -32 -21 -30 -41 4 -33 32 -39 54 -12 10 11 21 18
26 15 14 -9 21 26 8 41 -14 17 -15 17 -58 -3z"/>
<path d="M1384 925 c-19 -15 -19 -15 0 -30 19 -15 56 -5 56 15 0 20 -37 30
-56 15z"/>
<path d="M1755 930 c-9 -14 4 -50 18 -50 7 0 19 5 27 10 12 7 12 13 4 27 -13
21 -39 28 -49 13z"/>
<path d="M2137 924 c-13 -13 -7 -52 8 -58 27 -10 46 5 43 33 -3 26 -35 41 -51
25z"/>
<path d="M3071 921 c-19 -12 -7 -39 24 -51 14 -5 25 -14 25 -20 0 -15 47 -12
53 3 7 19 -20 50 -37 44 -9 -4 -17 1 -21 14 -7 20 -22 24 -44 10z"/>
<path d="M1642 910 c-36 -15 -36 -35 1 -73 41 -40 60 -73 52 -87 -4 -6 12 -10
40 -10 29 0 44 4 40 10 -4 6 -11 8 -16 5 -12 -8 -11 1 3 24 15 24 4 51 -21 51
-17 0 -32 19 -36 45 -7 42 -22 51 -63 35z"/>
<path d="M1933 905 c-16 -18 -16 -23 1 -41 16 -16 42 -10 50 11 5 14 -18 45
-32 45 -4 -1 -13 -7 -19 -15z"/>
<path d="M1256 901 c-4 -6 -13 -8 -20 -5 -15 6 -25 -6 -31 -35 -4 -23 22 -36
40 -21 7 6 19 8 26 5 22 -8 41 10 37 36 -3 25 -41 39 -52 20z"/>
<path d="M3334 896 c-10 -26 4 -48 28 -44 17 2 23 10 23 28 0 18 -6 26 -23 28
-13 2 -25 -3 -28 -12z"/>
<path d="M3930 890 c-9 -16 -7 -24 6 -37 15 -16 17 -16 30 2 18 25 18 41 -2
49 -22 8 -22 8 -34 -14z"/>
<path d="M4481 891 c-7 -13 -6 -23 4 -37 15 -19 15 -19 30 0 15 19 5 56 -15
56 -5 0 -14 -8 -19 -19z"/>
<path d="M2823 885 c-17 -18 -16 -23 3 -42 19 -20 37 -5 32 28 -4 27 -19 33
-35 14z"/>
<path d="M3500 880 c-34 -34 -1 -72 39 -44 26 19 27 36 1 52 -17 10 -23 9 -40
-8z"/>
<path d="M4696 884 c-7 -19 10 -44 29 -44 22 0 28 33 9 47 -23 17 -31 16 -38
-3z"/>
<path d="M5294 885 c-4 -8 -18 -15 -34 -15 -55 0 -49 -56 7 -66 31 -6 38 -3
59 22 27 33 29 45 12 62 -16 16 -37 15 -44 -3z"/>
<path d="M1478 883 c-31 -5 -51 -25 -43 -44 4 -10 24 -14 68 -14 58 0 62 2 65
24 6 37 -16 45 -90 34z"/>
<path d="M3631 871 c-13 -24 9 -58 30 -45 25 15 15 63 -13 64 -4 0 -12 -8 -17
-19z"/>
<path d="M4174 876 c-10 -26 4 -48 28 -44 17 2 23 10 23 28 0 18 -6 26 -23 28
-13 2 -25 -3 -28 -12z"/>
<path d="M1105 866 c-20 -15 -15 -43 10 -52 18 -7 45 12 45 32 0 22 -35 35
-55 20z"/>
<path d="M2013 873 c-31 -6 -37 -32 -12 -54 29 -25 45 -24 65 6 28 44 10 60
-53 48z"/>
<path d="M5093 868 c-19 -32 -1 -54 32 -42 18 7 19 26 3 42 -15 15 -25 15 -35
0z"/>
<path d="M2972 848 c-30 -30 -3 -58 33 -34 19 12 23 13 19 2 -8 -20 27 -29 44
-12 22 21 8 46 -22 40 -14 -2 -28 0 -31 6 -8 14 -28 13 -43 -2z"/>
<path d="M2570 833 c-39 -27 -48 -39 -56 -67 -6 -24 -4 -26 26 -26 23 0 33 5
37 20 3 11 14 20 25 20 19 0 48 22 48 36 0 9 -32 33 -45 34 -6 0 -22 -8 -35
-17z"/>
<path d="M3270 826 c-18 -22 -5 -48 22 -44 17 2 23 10 23 28 0 29 -26 38 -45
16z"/>
<path d="M1155 804 c-14 -14 -14 -19 -2 -38 8 -12 27 -22 43 -23 16 -1 23 0
17 3 -8 3 -11 15 -8 27 8 32 -28 53 -50 31z"/>
<path d="M2412 790 c-29 -39 -28 -50 7 -50 22 0 32 6 37 23 11 32 11 41 -1 49
-16 12 -20 10 -43 -22z"/>
<path d="M5050 790 c-38 -37 -38 -50 1 -50 39 0 72 36 58 62 -13 25 -24 23
-59 -12z"/>
<path d="M1373 795 c-7 -8 -13 -19 -13 -24 0 -11 32 -31 48 -31 16 0 22 42 7
56 -17 17 -27 17 -42 -1z"/>
<path d="M1840 778 l0 -33 64 -3 c72 -3 87 7 55 39 -15 15 -30 20 -50 17 -17
-3 -32 -1 -35 4 -13 21 -34 6 -34 -24z"/>
<path d="M2189 800 c0 -3 -2 -13 -4 -23 -4 -24 23 -34 41 -15 19 19 8 47 -17
45 -10 -1 -19 -4 -20 -7z"/>
<path d="M3436 794 c-7 -19 10 -44 29 -44 18 0 36 25 30 42 -8 20 -52 21 -59
2z"/>
<path d="M3642 798 c-25 -25 0 -64 32 -52 21 8 21 50 0 58 -20 8 -18 8 -32 -6z"/>
<path d="M3756 794 c-20 -19 -20 -22 -1 -40 18 -18 50 -10 60 14 4 10 -1 21
-11 29 -23 17 -29 16 -48 -3z"/>
<path d="M2876 784 c-6 -16 14 -44 32 -44 17 0 33 27 26 44 -8 21 -50 21 -58
0z"/>
<path d="M957 784 c-4 -4 -7 -16 -7 -26 0 -13 8 -18 31 -18 26 0 30 3 27 23
-3 22 -36 36 -51 21z"/>
<path d="M4577 783 c-4 -3 -7 -15 -7 -25 0 -13 8 -18 29 -18 33 0 44 11 35 34
-6 16 -45 22 -57 9z"/>
<path d="M806 773 c-15 -15 -4 -33 19 -33 14 0 25 4 25 10 0 12 -35 31 -44 23z"/>
<path d="M2716 773 c-4 -5 -22 -8 -38 -8 -17 0 -33 -6 -35 -12 -3 -9 11 -13
50 -13 59 0 73 6 56 27 -13 15 -22 16 -33 6z"/>
<path d="M3950 772 c-8 -4 -16 -13 -17 -19 -2 -9 15 -13 62 -13 53 0 63 3 59
15 -7 18 -40 20 -50 4 -5 -8 -10 -6 -16 5 -10 17 -15 18 -38 8z"/>
<path d="M4362 760 c-11 -19 -10 -20 23 -20 39 0 42 4 21 26 -20 19 -29 18
-44 -6z"/>
<path d="M4443 773 c-26 -10 -13 -33 17 -33 32 0 37 9 18 28 -13 13 -16 13
-35 5z"/>
<path d="M1287 764 c-12 -12 4 -24 30 -24 21 0 24 2 13 15 -13 16 -32 20 -43
9z"/>
<path d="M4950 760 c-21 -13 -7 -22 27 -18 27 3 27 4 7 15 -12 7 -26 8 -34 3z"/>
<path d="M5337 764 c-14 -14 -6 -24 19 -24 16 0 24 5 22 13 -5 14 -31 21 -41
11z"/>
<path d="M2105 750 c-3 -5 1 -10 9 -10 9 0 16 5 16 10 0 6 -4 10 -9 10 -6 0
-13 -4 -16 -10z"/>
<path d="M4835 750 c-4 -6 7 -10 25 -10 18 0 29 4 25 10 -3 6 -15 10 -25 10
-10 0 -22 -4 -25 -10z"/>
<path d="M5250 750 c0 -5 9 -10 21 -10 11 0 17 5 14 10 -3 6 -13 10 -21 10 -8
0 -14 -4 -14 -10z"/>
<path d="M829 708 c-1 -7 -1 -17 0 -21 1 -4 -6 -21 -14 -37 -23 -45 -19 -85
14 -120 33 -36 64 -37 69 -2 3 17 -2 25 -18 29 -18 5 -20 10 -14 32 5 14 8 41
8 59 0 17 3 32 8 32 4 0 8 6 8 14 0 24 -59 37 -61 14z"/>
<path d="M1097 709 c-9 -6 -17 -17 -17 -24 0 -19 -20 -19 -45 -1 -36 24 -71
27 -92 8 -29 -25 -46 -61 -37 -80 4 -9 7 -28 8 -42 1 -17 8 -26 26 -30 14 -4
24 -12 23 -18 -3 -15 38 -21 135 -20 69 0 81 3 71 14 -12 15 -35 19 -42 7 -2
-5 -2 -2 0 6 3 13 -31 50 -49 52 -28 4 -35 3 -51 -12 -23 -21 -49 -15 -63 16
-10 20 -8 27 7 41 18 16 20 16 32 1 13 -17 147 -33 156 -19 3 5 18 12 32 15
22 6 28 3 32 -14 8 -29 51 -22 55 9 4 23 16 29 27 12 10 -17 72 -12 79 6 8 21
-9 42 -37 46 -14 2 -21 10 -21 21 2 14 -4 17 -27 15 -16 -2 -30 -8 -30 -13 0
-6 -9 -13 -20 -17 -10 -4 -19 -15 -19 -23 0 -15 -2 -15 -17 0 -16 16 -16 18 0
27 27 14 20 28 -14 28 -25 0 -29 -3 -24 -19 4 -13 0 -20 -14 -24 -13 -3 -18
-1 -14 8 7 19 -28 36 -50 24z"/>
<path d="M1390 699 c15 -27 37 -34 55 -19 28 23 18 40 -25 40 -38 0 -40 -1
-30 -21z"/>
<path d="M1537 714 c-15 -15 -7 -53 13 -59 11 -3 23 -17 26 -31 3 -13 10 -22
14 -19 11 7 40 -40 40 -63 0 -11 -10 -23 -22 -27 -22 -8 -22 -8 4 -12 34 -5
84 18 81 37 -7 58 -15 70 -75 107 -16 10 -28 27 -30 42 -3 26 -35 41 -51 25z"/>
<path d="M1670 705 c-23 -27 17 -72 42 -47 7 7 18 5 36 -4 55 -29 87 -7 62 42
-12 21 -20 24 -70 24 -39 0 -62 -5 -70 -15z"/>
<path d="M2090 711 c0 -12 29 -23 41 -15 18 10 9 24 -16 24 -14 0 -25 -4 -25
-9z"/>
<path d="M2494 705 c6 -16 -7 -44 -33 -77 -13 -16 -15 -16 -40 3 -19 15 -34
19 -59 14 -26 -5 -36 -2 -51 16 -23 28 -48 20 -62 -21 -6 -17 -27 -39 -47 -52
-21 -12 -40 -27 -44 -32 -5 -7 -18 -5 -38 8 -27 15 -36 16 -61 6 -16 -7 -29
-17 -29 -22 0 -6 -9 -8 -20 -5 -20 5 -50 -15 -50 -33 0 -12 360 -11 383 1 11
6 17 6 17 -1 0 -6 38 -10 100 -10 60 0 100 4 100 10 0 6 -4 10 -8 10 -5 0 -21
11 -36 24 -25 21 -27 26 -16 47 7 13 21 32 31 42 15 14 17 22 9 37 -6 12 -7
20 -1 20 5 0 11 7 15 15 4 12 -3 15 -30 15 -28 0 -35 -3 -30 -15z m-187 -131
c-3 -3 -12 -4 -19 -1 -8 3 -5 6 6 6 11 1 17 -2 13 -5z m125 -8 c-4 -6 -7 -15
-7 -21 0 -5 -7 -10 -15 -10 -8 0 -15 5 -15 10 0 6 -3 15 -7 20 -3 6 6 10 23
11 18 1 26 -3 21 -10z m-178 -31 c-4 -8 -11 -15 -16 -15 -6 0 -5 6 2 15 7 8
14 15 16 15 2 0 1 -7 -2 -15z"/>
<path d="M2653 713 c9 -2 23 -2 30 0 6 3 -1 5 -18 5 -16 0 -22 -2 -12 -5z"/>
<path d="M3680 705 c-16 -19 -6 -45 20 -52 11 -3 20 -9 20 -14 0 -14 24 -11
45 5 19 14 18 15 -15 45 -39 35 -52 38 -70 16z"/>
<path d="M4022 706 c20 -14 14 -28 -8 -19 -8 3 -14 1 -14 -4 0 -10 -43 -33
-60 -33 -6 0 -10 6 -10 14 0 8 -4 18 -10 21 -6 4 -10 -23 -10 -75 0 -79 1 -81
23 -78 16 2 23 11 25 31 2 16 9 27 18 27 8 0 17 6 20 14 6 16 50 35 76 34 9
-1 15 -5 12 -9 -2 -4 3 -15 13 -24 21 -22 24 -55 6 -73 -7 -7 -11 -18 -8 -23
8 -12 115 -12 115 0 0 6 9 9 20 8 11 -1 20 -5 20 -9 0 -4 125 -8 278 -8 223 0
282 3 305 15 24 12 29 12 34 0 3 -9 18 -15 34 -15 22 0 29 5 29 19 0 11 -5 21
-11 23 -9 3 -9 10 0 27 10 17 10 25 0 37 -20 24 -53 13 -60 -21 -4 -16 -7 -23
-8 -14 0 9 -8 30 -17 47 -13 27 -21 32 -53 32 -42 0 -81 -23 -81 -48 0 -10 -7
-27 -15 -38 -8 -12 -11 -24 -8 -28 12 -12 -8 -6 -47 14 -38 19 -40 19 -60 3
-11 -10 -25 -19 -30 -19 -6 -1 -15 -2 -21 -3 -5 0 -7 -5 -4 -11 3 -5 1 -10 -5
-10 -7 0 -10 6 -7 13 3 6 8 19 11 27 4 9 -2 20 -14 28 -18 11 -22 9 -32 -13
l-12 -26 -22 26 c-13 15 -28 24 -34 20 -5 -3 -17 1 -26 9 -9 9 -19 14 -23 11
-5 -2 -16 4 -26 15 -20 23 -45 26 -63 8 -20 -20 -14 -3 8 22 11 13 20 28 20
34 -1 43 -63 49 -68 6 -4 -24 -38 -70 -52 -70 -10 0 -70 59 -70 68 0 12 -47
32 -73 32 -20 -1 -21 -2 -5 -14z m188 -137 c0 -5 -4 -9 -10 -9 -5 0 -10 -8
-10 -19 0 -14 -6 -17 -25 -14 l-24 5 21 28 c19 26 48 31 48 9z m50 0 c0 -5 8
-9 18 -9 16 -1 16 -1 0 -11 -13 -7 -22 -5 -37 8 -11 9 -18 20 -15 24 6 10 34
0 34 -12z m530 17 c0 -2 3 -11 6 -20 9 -23 -9 -20 -24 4 -10 17 -10 20 3 20 8
0 15 -2 15 -4z m-406 -62 c3 -8 2 -12 -4 -9 -6 3 -10 10 -10 16 0 14 7 11 14
-7z"/>
<path d="M4511 696 c-27 -29 -24 -60 7 -64 16 -3 27 6 43 32 21 37 33 44 44
26 7 -12 32 -2 39 16 4 11 -7 14 -53 14 -48 0 -61 -4 -80 -24z"/>
<path d="M4670 706 c-27 -33 18 -72 48 -42 13 13 14 20 6 34 -15 23 -38 26
-54 8z"/>
<path d="M4780 701 c0 -24 25 -34 51 -21 10 6 19 8 19 5 0 -3 9 -1 20 5 35 19
22 30 -35 30 -47 0 -55 -3 -55 -19z"/>
<path d="M4950 711 c0 -16 28 -20 47 -6 17 13 16 14 -14 15 -18 0 -33 -4 -33
-9z"/>
<path d="M5025 710 c3 -5 15 -10 26 -10 14 0 19 -5 17 -17 -3 -13 -12 -17 -36
-16 -22 2 -34 -2 -41 -15 -15 -28 3 -44 48 -47 45 -3 67 18 55 50 -5 12 -2 16
12 13 22 -4 32 31 12 43 -19 12 -101 11 -93 -1z"/>
<path d="M5240 710 c0 -5 11 -10 25 -10 14 0 25 5 25 10 0 6 -11 10 -25 10
-14 0 -25 -4 -25 -10z"/>
<path d="M3017 703 c-4 -3 -7 -16 -7 -29 0 -23 -25 -40 -35 -24 -4 6 -17 10
-29 10 -15 0 -26 7 -29 20 -3 12 -14 20 -26 20 -20 0 -21 -5 -21 -77 0 -43 4
-83 8 -88 24 -34 148 -48 172 -20 10 12 15 13 20 4 6 -8 13 -8 29 1 24 12 65
4 56 -11 -4 -5 5 -9 18 -9 18 0 23 5 23 23 -1 15 4 21 14 18 8 -3 26 -5 40 -6
14 -1 33 -5 42 -9 25 -11 39 2 34 30 -3 14 0 24 7 24 7 0 13 -14 14 -32 3 -36
19 -51 48 -43 11 3 29 8 40 12 11 3 35 8 53 10 24 4 36 13 43 30 12 31 33 25
37 -10 3 -27 39 -46 61 -32 6 3 11 1 11 -5 0 -16 130 -5 141 11 7 12 10 12 18
1 5 -8 23 -12 47 -10 l39 3 3 88 c1 48 -1 87 -5 87 -20 -1 -35 -19 -29 -35 5
-14 2 -16 -14 -12 -29 8 -53 -19 -40 -44 9 -15 7 -23 -6 -37 -13 -12 -19 -13
-22 -4 -2 6 -14 12 -27 12 -18 0 -24 6 -27 28 -2 22 -8 27 -31 27 -19 0 -31 7
-40 25 -24 48 -137 26 -137 -27 0 -20 -17 -15 -23 7 -7 28 -34 36 -56 16 -22
-20 -44 -20 -83 0 -30 16 -33 15 -48 -3 -20 -26 -60 -36 -60 -16 0 8 4 23 10
33 22 41 -18 64 -45 26 -12 -16 -14 -16 -23 -1 -5 10 -18 15 -33 13 -19 -2
-24 -9 -24 -30 1 -31 -12 -37 -22 -10 -12 35 -67 64 -86 45z m53 -94 c0 -10
-4 -19 -10 -19 -5 0 -10 12 -10 26 0 14 4 23 10 19 6 -3 10 -15 10 -26z m-85
-19 c3 -5 16 -10 28 -10 15 0 18 -3 10 -11 -8 -8 -27 -7 -69 2 -54 12 -57 14
-29 20 45 10 53 10 60 -1z m483 -16 c-7 -15 -14 -21 -16 -15 -5 16 5 41 17 41
7 0 6 -10 -1 -26z"/>
<path d="M1849 679 c-9 -17 -8 -23 2 -30 19 -12 25 -11 39 6 15 18 6 45 -14
45 -9 0 -20 -10 -27 -21z"/>
<path d="M2673 683 c-13 -8 -23 -26 -23 -39 0 -21 -3 -22 -25 -14 -17 7 -28 6
-35 -3 -5 -7 -21 -25 -35 -41 -14 -16 -25 -33 -25 -37 0 -13 33 -27 49 -21 8
2 20 -3 27 -12 10 -14 16 -15 33 -6 12 6 21 15 21 19 0 5 13 14 30 19 30 11
30 11 14 -13 -8 -13 -11 -25 -7 -28 4 -3 38 -5 75 -6 57 -1 69 2 78 18 7 15 6
23 -6 35 -14 15 -14 17 0 22 12 5 16 20 16 59 l0 53 -42 -5 c-24 -3 -49 -10
-55 -16 -20 -15 -15 -45 9 -53 31 -9 51 -32 44 -49 -7 -19 -26 -20 -26 -2 0
19 -40 59 -54 54 -41 -17 -46 -18 -46 -8 0 6 11 17 25 23 20 9 25 18 23 37 -4
31 -33 38 -65 14z"/>
<path d="M4896 687 c-20 -15 -14 -37 14 -55 18 -11 20 -10 20 22 0 41 -10 50
-34 33z"/>
<path d="M1982 665 c-10 -12 -9 -22 5 -52 20 -41 51 -55 65 -29 5 9 14 14 19
10 12 -7 39 14 39 30 0 6 -9 17 -20 23 -16 10 -22 10 -32 -1 -10 -11 -14 -10
-23 8 -13 26 -36 30 -53 11z"/>
<path d="M4374 665 c-19 -13 -19 -14 1 -28 29 -22 68 0 47 28 -11 15 -28 15
-48 0z"/>
<path d="M4940 655 c0 -14 4 -25 9 -25 12 0 19 21 13 38 -8 21 -22 13 -22 -13z"/>
<path d="M5175 663 c-48 -12 -61 -52 -22 -71 17 -8 18 -11 5 -11 -10 -1 -23
-11 -29 -23 -16 -29 -40 -47 -55 -41 -7 2 -15 0 -19 -6 -4 -8 55 -11 196 -11
163 0 200 2 190 13 -6 6 -24 12 -39 12 -15 0 -27 5 -27 10 0 6 -4 16 -8 23 -5
6 -4 12 1 12 6 0 12 -7 16 -15 7 -20 23 -19 35 4 7 13 6 23 -4 37 -14 18 -16
18 -28 2 -8 -10 -21 -15 -34 -12 -15 4 -26 -3 -43 -26 -12 -17 -27 -29 -33
-27 -6 2 -20 32 -31 68 -21 64 -30 72 -71 62z"/>
<path d="M4611 636 c-16 -20 -3 -46 24 -46 28 0 40 26 21 46 -18 18 -30 18
-45 0z"/>
<path d="M774 616 c-3 -8 -1 -23 5 -33 9 -15 10 -13 11 15 0 34 -7 42 -16 18z"/>
<path d="M1477 602 c-10 -10 -17 -26 -17 -36 0 -9 -4 -14 -10 -11 -5 3 -15 -3
-22 -15 -14 -23 -30 -27 -22 -6 5 14 -20 46 -37 46 -6 0 -24 -13 -41 -29 -19
-17 -38 -27 -49 -24 -10 3 -18 8 -17 12 2 21 -5 33 -27 41 -33 13 -55 3 -55
-25 0 -46 24 -53 183 -55 81 0 147 3 147 8 0 4 -5 13 -12 20 -12 12 -4 17 37
24 32 5 32 46 0 58 -35 13 -39 13 -58 -8z"/>
<path d="M1879 598 c-5 -17 -4 -50 3 -54 13 -8 9 -24 -6 -24 -8 0 -18 -4 -21
-10 -4 -6 11 -10 39 -10 62 0 77 26 40 69 -21 25 -51 41 -55 29z"/>
<path d="M1781 581 c-17 -11 -6 -48 20 -62 19 -10 20 -8 17 27 -3 39 -14 49
-37 35z"/>
<path d="M4996 556 c-8 -20 -20 -36 -25 -36 -6 0 -11 -4 -11 -10 0 -5 15 -10
34 -10 59 0 88 77 33 88 -11 2 -21 -9 -31 -32z"/>
<path d="M4034 555 c-19 -15 -19 -15 0 -30 19 -15 56 -5 56 15 0 20 -37 30
-56 15z"/>
<path d="M3978 539 c-28 -16 -22 -39 10 -39 37 0 44 8 29 31 -13 22 -16 22
-39 8z"/>
<path d="M770 515 c-10 -12 -10 -15 4 -15 9 0 16 7 16 15 0 8 -2 15 -4 15 -2
0 -9 -7 -16 -15z"/>
<path d="M800 517 c0 -10 8 -17 18 -17 9 0 13 4 7 8 -5 4 -13 11 -17 16 -5 5
-8 2 -8 -7z"/>
<path d="M1148 473 c7 -3 16 -2 19 1 4 3 -2 6 -13 5 -11 0 -14 -3 -6 -6z"/>
<path d="M1256 470 c7 -7 19 -7 35 -1 23 9 22 10 -10 10 -24 1 -32 -2 -25 -9z"/>
<path d="M1365 470 c3 -5 13 -10 21 -10 8 0 14 5 14 10 0 6 -9 10 -21 10 -11
0 -17 -4 -14 -10z"/>
<path d="M1423 473 c9 -2 23 -2 30 0 6 3 -1 5 -18 5 -16 0 -22 -2 -12 -5z"/>
<path d="M1585 470 c3 -5 17 -10 31 -10 13 0 24 5 24 10 0 6 -14 10 -31 10
-17 0 -28 -4 -24 -10z"/>
<path d="M1855 470 c3 -5 15 -10 25 -10 10 0 22 5 25 10 4 6 -7 10 -25 10 -18
0 -29 -4 -25 -10z"/>
<path d="M2137 469 c8 -8 16 -8 30 0 16 9 14 10 -11 11 -22 0 -27 -3 -19 -11z"/>
<path d="M2520 470 c0 -13 11 -13 30 0 12 8 11 10 -7 10 -13 0 -23 -4 -23 -10z"/>
<path d="M2765 470 c3 -5 12 -10 20 -10 8 0 17 5 20 10 4 6 -5 10 -20 10 -15
0 -24 -4 -20 -10z"/>
<path d="M3150 470 c0 -5 11 -10 25 -10 14 0 25 5 25 10 0 6 -11 10 -25 10
-14 0 -25 -4 -25 -10z"/>
<path d="M3955 470 c3 -5 19 -10 36 -10 16 0 29 5 29 10 0 6 -16 10 -36 10
-21 0 -33 -4 -29 -10z"/>
<path d="M4164 469 c12 -8 25 -8 40 -1 18 9 16 11 -19 11 -33 0 -37 -1 -21
-10z"/>
<path d="M4280 476 c0 -10 28 -13 41 -5 10 6 7 9 -13 9 -16 0 -28 -2 -28 -4z"/>
<path d="M4350 476 c0 -10 28 -13 41 -5 10 6 7 9 -13 9 -16 0 -28 -2 -28 -4z"/>
<path d="M4425 470 c3 -5 21 -10 40 -10 19 0 37 5 40 10 4 6 -12 10 -40 10
-28 0 -44 -4 -40 -10z"/>
<path d="M4535 470 c3 -5 19 -10 36 -10 16 0 29 5 29 10 0 6 -16 10 -36 10
-21 0 -33 -4 -29 -10z"/>
<path d="M4678 473 c7 -3 16 -2 19 1 4 3 -2 6 -13 5 -11 0 -14 -3 -6 -6z"/>
<path d="M4753 469 c14 -8 22 -8 30 0 8 8 3 11 -18 11 -26 -1 -28 -2 -12 -11z"/>
<path d="M4974 465 c13 -10 24 -11 37 -4 28 14 23 19 -18 19 -35 -1 -37 -2
-19 -15z"/>
<path d="M5065 471 c6 -10 103 -7 113 3 3 3 -23 6 -57 6 -36 0 -60 -4 -56 -9z"/>
<path d="M5224 473 c10 -11 86 -11 86 -1 0 4 -21 8 -47 8 -25 0 -43 -3 -39 -7z"/>
<path d="M5358 468 c8 -8 20 -8 44 -1 l33 11 -44 1 c-34 1 -42 -2 -33 -11z"/>
<path d="M250 1860 c0 -6 7 -10 15 -10 8 0 15 -4 15 -10 0 -5 -7 -10 -15 -10
-8 0 -15 -4 -15 -10 0 -6 9 -6 23 -1 12 5 22 14 22 21 0 7 -10 16 -22 21 -14
5 -23 5 -23 -1z"/>
<path d="M263 1793 c9 -2 25 -2 35 0 9 3 1 5 -18 5 -19 0 -27 -2 -17 -5z"/>
<path d="M248 1773 c12 -2 32 -2 45 0 12 2 2 4 -23 4 -25 0 -35 -2 -22 -4z"/>
<path d="M127 1733 c-3 -5 14 -8 38 -8 24 0 38 3 32 7 -16 10 -65 10 -70 1z"/>
<path d="M251 1718 c0 -21 1 -21 8 -4 7 19 8 19 13 -2 4 -15 11 -20 23 -16 25
10 13 39 -18 42 -23 3 -27 0 -26 -20z m44 2 c3 -5 1 -10 -4 -10 -6 0 -11 5
-11 10 0 6 2 10 4 10 3 0 8 -4 11 -10z"/>
<path d="M380 1719 c-10 -6 -11 -9 -2 -9 6 0 12 -11 12 -24 0 -13 -6 -27 -12
-29 -7 -3 -2 -6 12 -6 24 -1 26 2 22 34 -5 40 -12 48 -32 34z"/>
<path d="M453 1722 c-12 -7 -16 -25 -14 -55 2 -30 45 -18 49 14 3 28 -17 52
-35 41z m17 -37 c0 -14 -4 -25 -10 -25 -5 0 -10 11 -10 25 0 14 5 25 10 25 6
0 10 -11 10 -25z"/>
<path d="M120 1700 c0 -5 5 -10 11 -10 5 0 8 -4 4 -9 -3 -6 4 -15 15 -21 27
-14 50 2 43 30 -4 15 -14 20 -39 20 -19 0 -34 -4 -34 -10z m60 -20 c0 -5 -7
-10 -15 -10 -8 0 -15 5 -15 10 0 6 7 10 15 10 8 0 15 -4 15 -10z"/>
<path d="M237 1678 c2 -5 19 -8 38 -8 19 0 36 3 38 8 3 4 -14 7 -38 7 -24 0
-41 -3 -38 -7z"/>
<path d="M137 1625 c-4 -8 -2 -17 3 -20 6 -4 10 2 10 12 0 13 5 9 15 -11 9
-17 14 -37 12 -45 -3 -10 -5 -7 -6 7 -1 25 -13 28 -30 8 -9 -11 -8 -18 4 -30
9 -9 20 -16 25 -16 16 0 29 34 19 52 -6 10 -5 19 1 23 16 10 -1 35 -25 35 -13
0 -25 -7 -28 -15z"/>
<path d="M257 1613 c-4 -3 -7 -15 -7 -25 0 -15 8 -18 43 -18 23 0 37 4 31 8
-6 4 -13 15 -17 25 -6 17 -37 23 -50 10z m38 -13 c3 -6 -1 -13 -10 -16 -19 -8
-30 0 -20 15 8 14 22 14 30 1z"/>
<path d="M250 1550 c0 -5 11 -10 25 -10 34 0 32 -20 -2 -21 -26 -2 -26 -2 -4
-6 28 -6 44 8 35 30 -7 18 -54 24 -54 7z"/>
<path d="M120 1510 c0 -5 5 -10 11 -10 5 0 8 -4 4 -9 -3 -6 4 -15 15 -21 27
-14 50 2 43 30 -4 15 -14 20 -39 20 -19 0 -34 -4 -34 -10z m60 -20 c0 -5 -7
-10 -15 -10 -8 0 -15 5 -15 10 0 6 7 10 15 10 8 0 15 -4 15 -10z"/>
<path d="M447 1483 c-4 -3 -7 -22 -7 -40 0 -30 3 -34 23 -31 16 2 22 10 22 28
0 38 -21 61 -38 43z m23 -23 c0 -5 -2 -10 -4 -10 -3 0 -8 5 -11 10 -3 6 -1 10
4 10 6 0 11 -4 11 -10z m0 -30 c0 -5 -4 -10 -10 -10 -5 0 -10 5 -10 10 0 6 5
10 10 10 6 0 10 -4 10 -10z"/>
<path d="M127 1448 c6 -10 54 -10 70 0 7 4 -8 7 -32 7 -23 0 -41 -3 -38 -7z"/>
<path d="M264 1446 c11 -9 27 -16 35 -16 21 0 2 16 -29 24 -24 7 -24 6 -6 -8z"/>
<path d="M250 1421 c0 -5 8 -12 18 -14 16 -4 16 -5 0 -6 -10 0 -18 -5 -18 -11
0 -5 8 -7 18 -4 9 3 23 8 31 10 11 4 10 8 -5 19 -22 16 -44 19 -44 6z"/>
<path d="M161 1373 c-6 -11 -11 -13 -11 -5 0 7 -4 11 -8 8 -5 -3 -8 -15 -6
-28 1 -13 3 -26 3 -30 1 -5 13 -7 29 -7 23 2 24 2 5 6 -27 5 -28 11 -8 37 15
20 15 20 15 0 0 -15 2 -16 9 -5 10 15 4 41 -10 41 -4 0 -13 -8 -18 -17z"/>
<path d="M263 1373 c-19 -7 -16 -40 4 -47 9 -4 23 0 31 8 13 12 13 18 2 30
-13 17 -17 18 -37 9z m37 -23 c0 -5 -9 -10 -20 -10 -11 0 -20 5 -20 10 0 6 9
10 20 10 11 0 20 -4 20 -10z"/>
<path d="M248 1303 c12 -2 32 -2 45 0 12 2 2 4 -23 4 -25 0 -35 -2 -22 -4z"/>
<path d="M137 1275 c-4 -8 -2 -17 3 -20 6 -4 10 2 10 12 0 13 5 9 15 -11 9
-17 14 -37 12 -45 -3 -10 -5 -7 -6 7 -1 25 -13 28 -30 8 -9 -11 -8 -18 4 -30
9 -9 20 -16 25 -16 16 0 29 34 19 52 -6 10 -5 19 1 23 16 10 -1 35 -25 35 -13
0 -25 -7 -28 -15z"/>
<path d="M248 1283 c12 -2 32 -2 45 0 12 2 2 4 -23 4 -25 0 -35 -2 -22 -4z"/>
<path d="M263 1263 c-19 -7 -16 -40 4 -47 9 -4 23 0 31 8 13 12 13 18 2 30
-13 17 -17 18 -37 9z m37 -23 c0 -5 -9 -10 -20 -10 -11 0 -20 5 -20 10 0 6 9
10 20 10 11 0 20 -4 20 -10z"/>
<path d="M453 1242 c-12 -7 -16 -25 -14 -55 1 -13 8 -17 23 -15 32 4 35 36 6
47 l-23 10 23 0 c13 1 20 5 17 11 -7 12 -16 12 -32 2z m13 -59 c-10 -10 -19 5
-10 18 6 11 8 11 12 0 2 -7 1 -15 -2 -18z"/>
<path d="M230 1199 c0 -21 17 -27 55 -18 l30 7 -27 1 c-16 0 -31 1 -34 0 -4 0
-11 5 -15 13 -7 10 -9 9 -9 -3z"/>
<path d="M140 1171 c0 -5 6 -12 13 -15 10 -5 10 -7 0 -12 -7 -3 -13 -10 -13
-15 0 -6 8 -5 20 1 12 6 31 8 43 4 19 -5 20 -4 7 8 -20 19 -70 40 -70 29z"/>
<path d="M242 1124 c-7 -8 -8 -14 -2 -14 5 0 10 -11 10 -24 0 -32 16 -42 29
-19 9 16 12 16 21 3 8 -13 10 -13 10 2 0 26 -21 33 -37 13 -12 -18 -13 -18
-13 3 0 15 6 22 19 22 11 0 22 4 25 9 4 5 -3 7 -15 4 -12 -3 -24 -1 -28 4 -4
7 -11 6 -19 -3z"/>
<path d="M143 1069 c-18 -18 -3 -39 26 -38 23 2 24 2 4 6 -28 5 -30 23 -3 23
11 0 20 5 20 10 0 14 -33 13 -47 -1z"/>
<path d="M251 1018 c0 -21 1 -21 8 -4 7 19 8 19 13 -2 4 -15 11 -20 23 -16 25
10 13 39 -18 42 -23 3 -27 0 -26 -20z m44 2 c3 -5 1 -10 -4 -10 -6 0 -11 5
-11 10 0 6 2 10 4 10 3 0 8 -4 11 -10z"/>
<path d="M153 1013 c9 -2 23 -2 30 0 6 3 -1 5 -18 5 -16 0 -22 -2 -12 -5z"/>
<path d="M452 986 c-24 -31 -22 -41 8 -49 26 -7 30 1 21 43 l-7 34 -22 -28z
m18 -16 c0 -5 -5 -10 -11 -10 -5 0 -7 5 -4 10 3 6 8 10 11 10 2 0 4 -4 4 -10z"/>
<path d="M248 973 c12 -2 32 -2 45 0 12 2 2 4 -23 4 -25 0 -35 -2 -22 -4z"/>
<path d="M128 953 c12 -2 32 -2 45 0 12 2 2 4 -23 4 -25 0 -35 -2 -22 -4z"/>
<path d="M139 908 c-3 -26 3 -42 19 -55 16 -11 16 -12 0 -13 -10 0 -18 -4 -18
-10 0 -6 10 -5 25 2 30 14 32 24 5 33 -12 4 -20 15 -19 28 0 21 1 21 10 -2 7
-19 12 -21 24 -11 7 6 11 18 8 26 -6 17 -53 19 -54 2z"/>
<path d="M263 913 c-7 -2 -13 -18 -13 -34 0 -16 -5 -29 -12 -29 -10 0 -10 -2
0 -9 14 -9 60 -3 67 9 2 4 -7 5 -20 2 -14 -2 -25 0 -25 7 0 5 6 8 13 5 8 -3
20 2 27 11 10 12 10 18 0 30 -13 16 -17 17 -37 8z m37 -23 c0 -5 -9 -10 -20
-10 -11 0 -20 5 -20 10 0 6 9 10 20 10 11 0 20 -4 20 -10z"/>
<path d="M153 803 c9 -2 23 -2 30 0 6 3 -1 5 -18 5 -16 0 -22 -2 -12 -5z"/>
<path d="M140 783 c0 -3 8 -12 18 -19 15 -12 15 -13 1 -14 -9 0 -19 -6 -21
-12 -9 -24 3 -38 30 -37 24 2 24 2 5 6 -28 5 -30 29 -3 38 27 9 25 19 -5 33
-14 6 -25 9 -25 5z"/>
<path d="M253 753 c-1 -42 0 -43 31 -42 30 2 30 2 4 6 -32 5 -33 10 -12 38 13
17 16 18 24 5 8 -13 10 -13 10 2 0 25 -21 33 -36 14 -12 -16 -13 -16 -17 1 -2
10 -4 -1 -4 -24z"/>
<path d="M445 760 c-3 -5 1 -10 9 -10 22 0 20 -9 -6 -37 l-21 -23 34 1 c19 1
26 3 16 6 -15 4 -16 7 -2 26 11 15 12 24 3 34 -13 16 -25 17 -33 3z"/>
<path d="M251 668 c0 -21 1 -22 8 -4 7 19 8 19 13 -1 4 -14 0 -24 -8 -27 -19
-7 -18 -42 2 -50 20 -8 44 10 44 32 0 13 -3 12 -15 -4 -14 -19 -14 -18 -15 3
0 12 7 26 17 31 23 14 9 42 -22 42 -19 0 -25 -5 -24 -22z m44 2 c3 -5 1 -10
-4 -10 -6 0 -11 5 -11 10 0 6 2 10 4 10 3 0 8 -4 11 -10z"/>
<path d="M140 670 c0 -5 9 -10 20 -10 28 0 25 -20 -2 -21 -18 -1 -19 -2 -5 -6
29 -8 46 4 40 26 -5 22 -53 31 -53 11z"/>
<path d="M161 603 c-6 -11 -11 -13 -11 -5 0 7 -5 10 -10 7 -8 -5 -7 -12 1 -22
11 -13 14 -13 26 3 12 17 13 17 13 -2 0 -15 2 -16 9 -5 10 15 4 41 -10 41 -4
0 -13 -8 -18 -17z"/>
<path d="M250 573 c0 -3 8 -12 18 -19 16 -13 16 -13 0 -14 -10 0 -18 -5 -18
-10 0 -7 7 -7 21 1 12 6 30 8 42 5 17 -4 18 -3 6 8 -18 16 -69 38 -69 29z"/>
<path d="M453 522 c-12 -7 -16 -25 -14 -55 2 -30 45 -18 49 14 3 28 -17 52
-35 41z m17 -37 c0 -14 -4 -25 -10 -25 -5 0 -10 11 -10 25 0 14 5 25 10 25 6
0 10 -11 10 -25z"/>
<path d="M250 478 c0 -14 8 -18 33 -17 27 2 28 2 7 6 -14 3 -28 10 -32 17 -5
7 -8 5 -8 -6z"/>
<path d="M263 433 c-19 -7 -16 -40 4 -47 9 -4 23 0 31 8 13 12 13 18 2 30 -13
17 -17 18 -37 9z m37 -23 c0 -5 -9 -10 -20 -10 -11 0 -20 5 -20 10 0 6 9 10
20 10 11 0 20 -4 20 -10z"/>
<path d="M781 340 c-7 -4 -11 -20 -9 -36 2 -21 8 -29 23 -29 15 0 21 8 23 31
3 33 -14 49 -37 34z m27 -32 c-5 -32 -28 -35 -28 -4 0 17 5 26 16 26 10 0 14
-7 12 -22z"/>
<path d="M1750 339 c-10 -6 -11 -9 -2 -9 6 0 12 -11 12 -24 0 -13 -6 -27 -12
-29 -7 -3 -2 -6 12 -6 24 -1 26 2 22 34 -5 40 -12 48 -32 34z"/>
<path d="M1810 335 c-17 -21 -4 -65 20 -65 23 0 35 33 20 60 -13 24 -23 25
-40 5z m30 -30 c0 -14 -4 -25 -10 -25 -5 0 -10 11 -10 25 0 14 5 25 10 25 6 0
10 -11 10 -25z"/>
<path d="M1881 340 c-7 -4 -11 -20 -9 -36 2 -21 8 -29 23 -29 15 0 21 8 23 31
3 33 -14 49 -37 34z m27 -32 c-5 -32 -28 -35 -28 -4 0 17 5 26 16 26 10 0 14
-7 12 -22z"/>
<path d="M2785 340 c-3 -5 1 -10 9 -10 22 0 20 -9 -6 -37 l-21 -23 34 1 c19 1
26 3 16 6 -15 4 -16 7 -2 26 11 15 12 24 3 34 -13 16 -25 17 -33 3z"/>
<path d="M2851 340 c-7 -4 -11 -20 -9 -36 2 -21 8 -29 23 -29 15 0 21 8 23 31
3 33 -14 49 -37 34z m27 -32 c-5 -32 -28 -35 -28 -4 0 17 5 26 16 26 10 0 14
-7 12 -22z"/>
<path d="M2910 335 c-18 -22 -8 -60 15 -60 15 0 21 8 23 31 3 35 -19 52 -38
29z m30 -30 c0 -26 -14 -33 -25 -15 -9 14 1 40 15 40 5 0 10 -11 10 -25z"/>
<path d="M3815 340 c-3 -6 4 -10 17 -10 19 0 20 -2 8 -11 -11 -8 -12 -12 -2
-16 19 -8 14 -21 -10 -26 -20 -4 -19 -4 5 -6 24 -1 27 2 27 33 0 22 -6 36 -16
40 -21 8 -22 8 -29 -4z"/>
<path d="M3880 335 c-16 -19 -4 -65 17 -65 9 0 22 8 29 18 13 16 13 16 14 -1
0 -13 6 -17 23 -15 25 3 36 41 17 63 -14 17 -40 9 -41 -14 0 -12 -3 -11 -16 7
-18 26 -26 27 -43 7z m30 -30 c0 -14 -4 -25 -10 -25 -5 0 -10 11 -10 25 0 14
5 25 10 25 6 0 10 -11 10 -25z m60 0 c0 -14 -4 -25 -10 -25 -5 0 -10 11 -10
25 0 14 5 25 10 25 6 0 10 -11 10 -25z"/>
<path d="M4862 326 c-24 -31 -22 -41 8 -49 26 -7 30 1 21 43 l-7 34 -22 -28z
m18 -16 c0 -5 -5 -10 -11 -10 -5 0 -7 5 -4 10 3 6 8 10 11 10 2 0 4 -4 4 -10z"/>
<path d="M4921 340 c-7 -4 -11 -20 -9 -36 2 -21 8 -29 23 -29 15 0 21 8 23 31
3 33 -14 49 -37 34z m27 -32 c-5 -32 -28 -35 -28 -4 0 17 5 26 16 26 10 0 14
-7 12 -22z"/>
<path d="M4980 335 c-18 -22 -8 -60 15 -60 15 0 21 8 23 31 3 35 -19 52 -38
29z m30 -30 c0 -26 -14 -33 -25 -15 -9 14 1 40 15 40 5 0 10 -11 10 -25z"/>
<path d="M3103 180 c0 -25 2 -35 4 -22 2 12 2 32 0 45 -2 12 -4 2 -4 -23z"/>
<path d="M3062 179 c4 -42 23 -49 22 -7 0 18 -6 34 -13 36 -9 3 -11 -6 -9 -29z"/>
<path d="M3252 179 c4 -42 23 -49 22 -7 0 18 -6 34 -13 36 -9 3 -11 -6 -9 -29z"/>
<path d="M2940 158 c0 -24 4 -38 8 -32 4 6 15 13 25 17 26 10 18 51 -10 55
-21 3 -23 -1 -23 -40z m32 0 c-15 -15 -26 -4 -18 18 5 13 9 15 18 6 9 -9 9
-15 0 -24z"/>
<path d="M3009 198 c0 -2 -3 -15 -5 -30 -4 -24 -1 -28 21 -28 27 0 35 26 13
48 -11 11 -27 16 -29 10z m21 -38 c0 -5 -5 -10 -11 -10 -5 0 -7 5 -4 10 3 6 8
10 11 10 2 0 4 -4 4 -10z"/>
<path d="M3137 194 c-4 -4 -7 -18 -7 -31 0 -19 5 -23 28 -22 l27 1 -25 8 c-25
8 -25 8 -2 9 17 1 22 6 20 18 -3 19 -29 29 -41 17z m28 -14 c3 -5 -1 -10 -10
-10 -9 0 -13 5 -10 10 3 6 8 10 10 10 2 0 7 -4 10 -10z"/>
<path d="M3191 166 c1 -27 2 -28 7 -8 9 30 25 30 34 0 6 -19 7 -18 5 7 -2 23
-7 30 -24 31 -19 1 -23 -4 -22 -30z"/>
</g>
</svg>
